<svg width="115" height="60" enable-background="new 0 0 115 60" viewBox="0 0 115 60" xmlns="http://www.w3.org/2000/svg"><path d="m93.76 50.98.27-.14c.14.27.41.55.68.55.41 0 .55-.14.55-.41s-.27-.41-.68-.55-.82-.14-.82-.68c0-.41.27-.68.82-.68.41 0 .68.14.82.55l-.27.14c-.14-.27-.41-.41-.68-.41s-.55.14-.55.41.27.41.68.55.82.14.82.68c0 .41-.41.68-.96.68-.13-.01-.54-.28-.68-.69zm2.32.55v-2.46h.41l.82 2.05.82-2.05h.41v2.46h-.27v-2.05c0 .14-.14.27-.14.41l-.68 1.5h-.27c0-.14-.68-1.5-.68-1.5 0-.14-.14-.27-.14-.41v2.05zm-7.79 8.33v-8.34h3.14v-2.46h-9.02v2.46h3.01v8.34zm-7.52-10.66h-2.87v10.66h2.87zm-11.48 10.66v-8.34h3.14v-2.46h-9.02v2.46h3.14v8.34zm-11.61.14c3.14 0 4.51-1.64 4.51-4.51v-6.42h-2.87v6.42c0 1.5-.41 2.19-1.64 2.19-1.09 0-1.64-.68-1.64-2.19v-6.42h-2.87v6.42c0 2.87 1.36 4.51 4.51 4.51m-11.21-2.19c-1.5 0-2.32-1.23-2.32-3.28 0-1.91.82-3.14 2.32-3.14s2.32 1.23 2.32 3.14c0 1.92-.82 3.28-2.32 3.28m0 2.19c2.6 0 5.19-1.64 5.19-5.6s-2.73-5.6-5.19-5.6-5.19 1.64-5.19 5.6c-.14 4.1 2.59 5.6 5.19 5.6m-16.26-.14h2.87v-4.37h3.55v4.37h2.87v-10.66h-2.87v3.96h-3.55v-3.96h-2.87zm-4.52 0v-8.34h3.14v-2.46h-9.02v2.46h3.14v8.34zm-7.51-10.66h-2.87v10.66h2.87zm-12.71 10.66 1.64-6.7 1.5 6.7h2.46l2.73-10.66h-2.6l-.82 4.24c-.14.68-.27 1.37-.41 2.19-.14-.68-.27-1.5-.41-2.19l-.95-4.24h-2.6l-.96 4.24c-.14.68-.27 1.5-.41 2.19-.14-.68-.27-1.5-.41-2.19l-.95-4.24h-2.87l2.87 10.66zm39.5-48.93v-8.2h3.14v-2.46h-9.02v2.46h3.14v8.34h2.73zm-8.48-6.15 1.23-2.05v-2.46h-2.87v2.6h.96l-.68 1.91zm-10.11 6.15v-5.87l4.1 6.01h2.73v-10.8h-2.6v6.01l-3.96-6.01h-2.87v10.66zm-9.57-2.05c-1.5 0-2.32-1.23-2.32-3.28s.82-3.14 2.32-3.14 2.32 1.23 2.32 3.14-.82 3.28-2.32 3.28m0 2.33c2.6 0 5.19-1.64 5.19-5.6s-2.59-5.61-5.19-5.61-5.19 1.64-5.19 5.6 2.59 5.61 5.19 5.61m-12.98-8.48h.82c2.19 0 2.87.96 2.87 2.87 0 2.19-.68 3.01-2.87 3.01h-.82zm.68 8.2c3.14 0 5.88-1.23 5.88-5.47 0-4.1-2.73-5.33-5.88-5.33h-3.55v10.67zm1.37 18.59c0-.14 0-.14 0 0zm62.32 5.88c0 .14 0 .14 0 0zm0 .27c0-.13 0-.13 0 0-.14 0 0 0 0 0zm-.14.14c-.13-.14-.13-.14 0 0zm-.27.14s0 .13 0 0c-.14 0-.14.14-.14.14.14-.01.14-.01.14-.14zm.14 0c0-.14 0-.14 0 0-.14 0-.14 0 0 0zm.95-1.37c0 .14 0 .14 0 0zm-1.23 1.5s0 .14 0 0zm1.51-1.77c-.14 0-.14 0-.14 0 0 .14 0 .14-.14.27l.14-.14zm-.55.68c.14-.14.14-.14.14-.27 0 0-.14 0-.14.27-.14-.14-.14 0 0 0zm.68-.96c-.13 0-.13 0 0 0 0 .14 0 .14 0 0zm-1.09 1.37c.14 0 .14 0 0 0zm.14-.27c0 .13 0 .13 0 0zm-5.88-2.6c-.14.14-.14.27-.14.41v.55c.14-.14.14-.41.14-.55 0 0 0-.27 0-.41zm3.83 5.19c0 .14 0 .14 0 0-.14.14-.14.14-.14.14.14.14.14 0 .14-.14zm-4.1-3.28c0 .14 0 .14 0 0-.14 0-.14.14 0 0v.82c.14-.55.14-.96.27-1.5.14-.41.14-.96.27-1.37-.14.14-.27.41-.27.68s-.14.55-.27.82c0-.14 0-.14 0-.14v-.14c0 .29-.14.56 0 .83-.14 0 0 0 0 0zm0-.27c0-.14 0-.14.14-.27-.01.13-.01.13-.14.27.14.14.14.14 0 .27 0-.13 0-.13 0-.27zm5.05 2.73c0-.14.14-.27.27-.41.14-.14.14-.14.27-.27-.14.14-.14.14-.27.27-.27.14-.4.28-.27.41zm-1.09 1.23c-.14 0 0-.13 0 0 .14-.13.14-.13.14-.13h-.14c-.14 0-.14.13 0 .13zm-1.09-13.26c.27 0 .41 0 .68-.14.14-.14.41-.14.55-.14l.41-.27c.14-.14.27-.27.41-.41h.14.14c0-.14.14-.41.14-.55s0-.41.14-.55c-.14-.41-.55-.82-.96-.96-.27 0-.68 0-.96.14-.27.14-.55.27-.82.27 0 .41 0 .96.14 1.37-.15.42-.15.83-.01 1.24zm1.5 12.72h.14v-.14c-.14 0-.14 0-.14.14zm5.19-8.62c-.13 0-.13.14 0 0zm-.13 1.24c0-.14 0 0 0 0-.14 0-.14.13 0 0 0 .13 0 .13 0 0zm.13-.55c0 .13 0 .13 0 0zm-.13.82c0-.14 0-.14 0 0-.14.14 0 0 0 0zm-.14.14c0 .13 0 .13 0 0zm23.1 0c-.14 0 0 0 0 0zm-.14.82s0 .13 0 0v-.14zm-23.37.13c-.14 0-.14 0 0 0zm23.37-.41v-.14c0-.14 0-.14 0 0v.14c0 .14 0 .14 0 0zm-23.92 1.23c0-.13 0-.13 0 0 0-.13-.13 0 0 0zm-8.47 2.19c0-.14 0-.14 0 0zm7.79-1.37s-.14 0-.14.14v.14c.14-.14.14-.28.14-.28zm-.27.28c0 .13 0 .13 0 0-.14.14-.14.14-.14.14h.14c.13-.01.13-.14 0-.14zm-.14.27c.14 0 .14 0 0 0zm.68-.96s0 .14 0 0c-.14.14-.14.14-.14.27.14.01.14-.13.14-.27zm-.82 1.23c0-.13 0-.13 0 0zm.82-1.23s.14 0 0 0zm.82-1.09s.14 0 0 0c0-.14 0-.14 0 0-.13 0-.13.14 0 0zm-.68 1.09s0-.14.14-.14v-.14.14c-.14.01-.14.01-.14.14zm36.22 3.69c0 .14 0 .14 0 0zm-75.85-9.7c-.14 0-.14 0 0 0-.14 0-.14.14-.14.14s.14-.01.14-.14zm-28.57 2.59c0 .14 0 .14 0 0 .14 0 .14 0 0 0zm28.15-.68c0-.14-.13-.14 0 0-.13.14 0 .14 0 0zm-22 6.29c0-.14 0-.27 0-.41s0-.27-.14-.27v.41c0 .13 0 .13.14.27zm0-2.05v.27c0 .14 0 .27.14.27 0-.14 0-.27 0-.27 0-.13 0-.27-.14-.27zm22-4.38c0-.13 0-.13 0 0-.13-.13-.13-.13 0 0-.13-.13-.13 0 0 0-.13 0 0 0 0 0zm.28-1.09v-.14-.13.14c-.14-.01-.14-.01 0 .13zm-22.28 5.33c0 .14 0 .14 0 0 .14-.13.14-.13 0 0zm22.28-5.74c0-.14 0-.14 0 0zm-.14.55c0-.14 0-.14 0 0zm-.14.68c0-.14 0-.14 0 0zm-29.11 2.74c0-.14 0-.14 0 0s0 .13 0 0zm113.31-5.47c-.27-.14-.55-.27-.82-.41s-.68-.14-.96-.14-.55-.14-.82-.14c0 0-.14.14-.14 0h-.14v.14h-.14s0 .14.14.14.14 0 .14.14c-.14.14-.27.27-.41.14 0-.14 0-.14.14-.14s.14 0 .14-.14c-.27 0-.55.14-.82.27-.27.14-.41.27-.55.55v-.14c-.14 0-.27.14-.41.27-.14.14-.27.14-.41.27v.14c-.41.41-.96.68-1.37 1.09-.41.27-.82.68-1.23 1.09h.14l.14-.14h.14.14c.14 0 0 0 .14-.14 0 .14 0 .14-.14.14h-.14v.14s0 .14-.14.14c0 0-.14 0-.14.14s0 .14-.14 0c0 .14-.14.14-.27.27v-.14s0 0 0-.14c-.27.14-.41.27-.55.41-.14.27-.27.41-.41.55-.14.27-.27.55-.41.82s-.27.68-.14 1.09h-.14v.14h.14c0 .27.14.55.27.68.14.27.27.55.41.82l.41.55.55.55c.41.27.68.41 1.09.55s.82.27 1.23.27l1.23.27c.41.14.82.27 1.23.41h.14.14c0 .14 0 .14-.14.14 0 0 0 .14 0 0s0-.14 0-.14v.14c0 .14 0 .14-.14.14s-.14 0-.14.14h.14s0 0-.14 0c-.27.27-.41.55-.68.68-.27.27-.55.41-.82.68 0 0 0 0-.14 0s-.41.14-.55.27c-.14.14-.41.14-.68.27-.27.14-.55.14-.68.27-.27 0-.55.14-.82 0-.14-.14-.14-.27-.14-.41s0-.27-.14-.14c0-.14 0-.27.14-.41s.14-.14.14-.27v-.14s0 0 0-.14c.14 0 .14-.14.14-.14l.14-.14c-.14 0-.14 0-.14 0l-.14.14c.14-.14.27-.41.41-.41.14-.14.27-.14.41-.27h-.14s0 0-.14 0 .14-.14.14-.14 0 0 0-.14 0 0-.14 0c0 0 0 0-.14 0h.14s.14 0 .14-.14l-.14-.14c-.41.14-.96.41-1.37.82-.41.27-.68.68-1.09.96v.14l-.14.14-.14-.14h-.14c0 .14.14.14.14.14s.14.14 0 .14c.41.41.68.82.96 1.23.27.41.82.68 1.37.82.14 0 .41 0 .55.14.55 0 1.09-.14 1.64-.27.55-.14.96-.27 1.37-.55.55-.14 1.09-.55 1.5-.96.55-.41.82-.82.96-1.5.14-.27.14-.55 0-.68-.14-.14-.27-.41-.41-.55-.68-.68-1.37-1.23-2.19-1.5-.96-.41-1.91-.68-2.87-.96-.27 0-.55 0-.82-.14s-.55-.14-.68-.27c.14-.14.14-.27.14-.41l.41-.55c.14-.14.27-.41.27-.55.82-.82 1.64-1.78 2.6-2.46.96-.82 2.05-1.5 3.14-2.05v.55.55c0-.14 0-.14.14-.14l.14.14v-.14-.14.14l.14-.14.14-.14v.14.14l.14-.14s0-.14.14-.14v.14-.14-.14.14c0-.14 0-.14.14-.14s0 0 0 .14c.14-.14.27-.41.27-.68s.14-.41.27-.55c.68-.11.54-.38.27-.65zm-8.75 4.23c0-.13 0-.13 0 0 .14 0 .14 0 0 0zm.14-.13c.13-.14.13-.14 0 0zm.13.13s0 .14 0 0c-.14.14-.14.27-.14.14.01 0 .01 0 .14-.14 0-.13 0-.13 0 0zm.14-.13c-.14 0 0 0 0 0 0-.14 0-.14 0 0 0-.14 0 0 0 0zm.82 8.88c0 .14 0 .14 0 0zm2.32-.27s.14 0 0 0c.14.14.14.14 0 0zm-.68-11.35s.14-.13 0 0c.14 0 .14 0 0 0 .14 0 0 .14 0 0zm-.41.41c.14 0 .14-.14.14-.14s0 .14-.14.14zm-.68.55c.13 0 .13 0 0 0 0 .14 0 .14 0 0zm-.14.14c0-.14 0 0 0 0zm-.14.13c-.13 0 0 0 0 0zm0 .28c-.14.14-.41.27-.55.41 0 .14 0 .14 0 0 .14-.14.28-.28.55-.41.14-.27.27-.41.41-.55 0 .27-.27.41-.41.55zm.41-.69c0-.13 0-.13 0 0 .14.14.14.14 0 0zm.14-.13c.14-.14.14-.14 0 0 .14-.14.14-.14.14-.14s.13 0-.14.14c.14 0 .14 0 0 0zm.27.13-.14.14v-.14c.14 0 .14 0 .27-.14.01.14-.13.14-.13.14zm0-.27c.14-.14.14 0 0 0zm.28 0c0 .14-.14.14-.14.14s0 0 .14-.14c-.14 0 0 0 0 0 .13 0 .13 0 0 0zm.13-.27c0-.14 0 0 0 0zm.41-.14c0 .14-.14.14-.14.14-.14 0-.14.14-.14.14 0-.14 0-.14 0-.27h.28c0-.15 0-.15 0-.01.14-.14.14 0 0 0zm.14-.41c-.14 0-.14.14 0 0-.14.14-.14.14 0 0-.14 0 0 0 0 0s0 .14 0 0zm.27-.27c0 .13 0 .13 0 0zm.28.13c0-.13 0-.13 0 0zm.13-.13c.14-.14.14-.14.14-.14 0 .14 0 .14-.14.14zm.14-.28c0-.13 0 0 0 0zm.14.14h.14c-.14 0-.14 0-.14 0zm.82-.82c.14 0 .14-.14.14-.14 0 .14-.14.14-.41.27.13.01.27.01.27-.13zm-.41.27s.13 0 0 0c.14-.14.14-.14.14 0h-.14c-.14.14 0 0 0 0zm-.14.28s.14-.14.27-.14c-.13.27-.27.27-.27.14zm.41-.14c-.14 0-.14.14-.14 0s0 0 .14 0c-.14 0-.14 0 0 0zm.27-.14c.14 0 .14 0 0 0-.13 0-.13 0 0 0zm.14.14c0 .14-.14.14-.14.14-.13-.14 0-.14.14-.14zm0-.27c0 .13 0 .13 0 0zm0-.14c0-.14 0-.14 0 0 .14-.14 0 0 0 0zm.14.27s.13 0 0 0c.13 0 .13 0 0 0zm2.18 2.05c0 .14 0 .14 0 0zm0-.13c0 .13 0 .13 0 0zm0 0c-.14-.14-.14-.27-.14-.27 0-.14 0-.27.14-.41 0 .14.14.27 0 .27zm-6.15 8.47c0-.13 0-.13 0 0zm.14-.13c0 .13 0 .13 0 0zm-99.09-2.05v.14c0-.01 0-.01 0-.14.14-.14 0-.27 0-.27zm.82-10.12c0-.14 0 0 0 0zm98.41 12.17h.14v-.14c-.14 0-.14.14-.14.14zm-76.68-16.68c0 .14 0 .14 0 0zm9.98 12.99c0-.14 0-.14 0 0zm-.27 3.96s0 0 0-.14c0 .14 0 .28 0 .14zm0-.96c0-.13 0-.13 0 0zm.13-.68c0 .14 0 .14 0 0zm6.97-5.06c0-.14 0-.14 0 0-.13.14 0 0 0 0zm4.24 1.1s.14 0 0 0zm10.25 4.64s0-.14.14-.14c-.14.01-.14.14-.14.14-.14 0-.14.14 0 0-.14.14 0 .14 0 0zm-30.75-17.22c-.14 0-.14 0 0 0zm-.55 7.65c0 .14 0 .14 0 0zm0-6.01c0-.14 0-.14 0 0 0 0 0 .14-.14.14.14 0 .14-.14.14-.14zm-.13 6.56c0-.14 0-.14 0 0-.14.14-.14.14-.14.14.14 0 .14-.14.14-.14zm.13-.14c-.13 0-.13 0 0 0-.13 0 0 0 0 0zm0-.68c.14 0 .14 0 0 0 .14-.14.14-.14 0 0 .14-.27.14-.27 0 0 0-.14 0-.14 0 0zm.14-6.01c-.14.13 0 .13 0 0zm.14-.41c0-.14 0-.14 0 0-.14.13 0 0 0 0zm31.02 15.99c0-.14 0-.14 0 0-.14 0-.14 0 0 0v.14c0-.14 0-.14 0-.14zm-15.72-3.01c-.13 0-.13.14 0 0-.14.14-.14.14-.14.27.01.01.14-.13.14-.27zm60.14-3.28s.14 0 0 0c.14 0 .14-.14 0 0 0-.14 0-.14 0 0zm-75.44-4.51c0-.27.14-.55.14-.96.14-.41.14-.68.14-1.09v.96c-.15.27-.15.68-.28 1.09zm.41-2.32v.27c0-.14 0-.27 0-.27zm15.71 15.31c0 .13 0 .13 0 0zm-16.26-12.03c0-.14 0-.14 0 0zm-2.19 12.16c0 .14 0 .14 0 0zm.14-2.59c.14 0 .14 0 0 0 .14-.14.14-.14 0 0zm.14 1.09.14-.82c0-.27 0-.41 0-.68 0 .27-.14.55-.14.82-.14.13-.14.41 0 .68zm17.9.14c-.14 0-.14 0 0 0zm0 .27s.14 0 0 0zm.14.55c0 .13 0 .13 0 0 0-.14 0-.14 0 0zm.27.54c-.14.14-.14.14 0 0zm-16.26-12.71c-.14 0-.14 0 0 0zm0-.27c.13 0 0-.14 0 0 0-.14 0-.14 0 0zm0 .54c-.14 0 0 .14 0 0zm.54-3.14c-.13 0 0 .14 0 0zm2.46 15.31c.14 0 .14 0 0 0zm.55-.55c0-.13 0 0 0 0zm-.41.55c.14 0 .14-.14 0 0 .14-.14.14-.14.14-.14-.14-.13-.14 0-.14.14zm.27-.41c-.13 0-.13 0 0 0zm-.54.68s.13 0 0 0c.14-.14.14-.14.14-.14s-.14.01-.14.14zm-.28.41c-.13 0 0 0 0 0 0-.13 0-.13 0 0 0-.13 0 0 0 0zm.14-.41s0 .14-.14.14c.14 0 .28 0 .14-.14zm.96-.95c-.14.13-.14.13 0 0zm.68-.96s.14 0 0 0c.14-.14 0-.14 0 0zm3.55-6.15c-.14-.41-.41-.82-.68-1.09v.14c-.41-.68-1.09-1.09-1.78-1.37-.68-.27-1.5-.55-2.19-.55-.14.14-.14.14-.27.14s-.27 0-.41 0c.27-1.23.41-2.46.55-3.55.14-1.37.14-2.6 0-3.96-.14-.27-.27-.68-.41-.96-.14 0-.14 0-.14-.14-.14 0-.14 0-.14 0 0-.14-.14-.14-.14-.14v.14s0-.14-.14-.14h-.14-.14s-.14 0-.14-.14c-.14 0-.14 0-.14 0v.14c0-.14-.27-.14-.41-.14-.27 0-.41 0-.68.14h.14c-.14.41-.27.82-.41 1.23-.14.27-.27.68-.27 1.09s0 .14 0 0v.14h.14c0 .14 0 .14.14.14.14-.27.14-.55.14-.68 0-.27.14-.41.27-.55 0 .14 0 .27-.14.41 0 .14-.14.27-.14.41.14 0 .14 0 .14-.14s0-.14 0-.14c0 .14 0 .27-.14.27.14 0 .27-.14.27-.27 0-.14.14-.27.14-.27 0 .41 0 .82-.14 1.09 0 .41-.14.82-.14 1.09.14-.41.14-.68.14-1.09s0-.82.14-1.23c0 1.64-.27 3.28-.55 4.78-.41 1.5-.68 3.14-.96 4.78v.14s0 .14-.14.14c.14 0 .14 0 .14.14s-.14.14-.14.14v-.14-.14s0 0 0-.14h-.14v.14c-.27.27-.55.68-.82 1.09-.14.41-.41.82-.55 1.09v.14.14h-.14s0 0-.14 0c-.14.27-.14.55-.27.82-.14.27-.14.55-.14.68.14.14.27.41.55.55.14.14.41.27.55.55h.14c0 .55 0 1.09-.14 1.78 0 .55-.14 1.23-.27 1.78 0-.14 0-.27 0-.41s.14-.27 0-.41c-.14 0-.14.14-.14.27 0 .14 0 .27-.14.27v.14.14c.14.14 0 .41 0 .55-.14.14-.14.27 0 .41 0-.14 0-.14 0-.14v.27c0 .14-.14.27-.14.27h.14v.14c0-.14 0-.14.14-.14v.27c.41.27.68.55.96.68.41.27.82.41 1.23.27 0 0 .14 0 .14.14h.14.14l.14.14c.14-.14.14-.14.27 0 .14.14.27.14.41 0l.14-.14h.14v.14h.14.14c.14-.14.14-.14.14-.14 0 .14 0 .14-.14.14.27 0 .41-.14.68-.27.14-.14.41-.27.68-.27v.14s0 0 0-.14c.14-.14.14-.14.27-.14.14 0 .27-.14.27-.14h.14c0-.14 0-.14 0-.14h.14c.55-.55 1.09-1.09 1.64-1.78.55-.55 1.09-1.23 1.5-2.05.41-.68.82-1.5.96-2.46.27-.96.27-1.91.27-3.01.02-.12-.12-.54-.26-1.08zm-7.65-10.94c.14 0 .14 0 0 0 .14.14 0 .14 0 0zm.14.96c0 .14 0 .14 0 0zm-3.15 13.12c0-.13.14 0 0 0zm.14-.41s0-.14.14-.14v-.14.27c-.01-.12-.14.01-.14.01zm.13 0c0 .14 0 .14 0 0zm.28-.54c0 .13 0 .13 0 0 .14 0 .14 0 0 0zm.14-.41c.13 0 .13 0 0 0zm-.28 7.92c0-.27 0-.55.14-.82 0-.14 0-.14 0-.14v.14c0 .28-.14.55-.14.82zm.41-2.05c-.13.14-.13.14 0 0-.13.28-.13.14 0 0-.14 0-.14-.14 0-.14zm0-.41c0-.13 0-.13 0 0zm0-.27c0-.14 0-.14 0 0 0-.14 0-.14 0-.27 0 0 .14 0 0 .14zm.14-.68c-.14.13-.14.13 0 0zm-.14-4.79c.14-.13.14-.13 0 0 .14 0 .14 0 0 0zm.14 4.51c0-.13 0-.13 0 0zm0-.13c0-.28 0-.14 0 0zm0-.69c.14-.13.14-.13 0 0 .14 0 .14 0 0 0zm.14-3.96c-.14.14-.14.14 0 0zm.27-.41c-.14 0 0 0 0 0 0-.14 0-.14 0-.14zm-.41.41c-.27.41-.41.68-.55 1.09 0-.41.14-.82.55-1.09.14-.27.41-.68.55-1.09-.14.4-.28.68-.55 1.09zm2.6-9.3c-.14 0-.14 0 0 0zm-.14 1.1v.14c-.14-.14-.14-.14 0-.14zm-.14.95c-.13-.13-.13-.13 0 0 0-.13 0-.13 0 0zm-.13.14c0-.14 0-.14 0 0 0-.14.13-.14 0 0 .13 0 0 .14 0 0zm0 .14v.14c0-.01 0-.01 0-.14s.13 0 0 0zm0 .54c-.14-.13-.14-.13 0 0 0 .14-.14.14 0 0-.14 0-.14 0 0 0zm-.14.41v-.14.14.14c-.14 0-.14-.14 0-.14zm-.27.82c.14-.14.14-.41.14-.68.13.27-.01.41-.14.68 0 .14 0 .41-.14.55.14-.14.14-.41.14-.55zm0 .69c0 .13-.14 0 0 0zm-.41 2.18c0 .14-.14.27-.14.27 0-.13 0-.13.14-.27-.14-.14-.14-.14 0-.27zm0-.54c0-.14 0-.27 0-.27zm0-.28c0-.14.14-.27.14-.41s0-.27.14-.41c0-.14 0-.27.14-.27s0 .14 0 .14 0 .14-.14.14v.41c-.15.13-.15.27-.28.4zm1.36 12.03s0 .14 0 0zm.69 1.23c0 .14 0 .14 0 0zm0-1.64c-.14 0-.14.14-.27.14.14-.14.27-.27.41-.41.13.14-.01.14-.14.27zm.68-.54c-.14 0-.14 0 0 0-.14.14-.14.14-.14.14 0 .14 0 .14 0 0s0-.14.14-.14c0-.14.14-.14.14-.27.14 0 .14-.14.14-.27-.01.26-.14.4-.28.54zm.41-.41c0-.14.14-.14.14-.14s-.14 0-.14.14zm.14-.28s.13 0 0 0c.13 0 .13 0 0 0zm.41-.41c0 .14 0 .14 0 0-.14 0-.14.14-.14.14 0 .14-.14.14-.14 0s.14 0 .28-.14c-.14 0-.14 0 0 0 0-.13.13 0 0 0zm.13-.13c0 .13-.13 0 0 0 0-.14 0-.14 0 0 .14-.14.14 0 0 0zm.55-.55c-.14 0-.14 0 0 0-.14.14-.14.27-.27.27 0 .14 0 .14-.14.14.14-.14.14-.14.14-.14s0-.14.14-.14c-.14.01-.01-.13.13-.13-.14 0-.14-.14 0 0-.14-.14-.14-.14 0 0 0-.14 0 0 0 0zm.14-.27c0 .13 0 .13 0 0-.14 0-.14 0 0 0 0-.14 0 0 0 0zm.41-.69s.14 0 .14.14c-.14 0-.14 0-.14-.14zm.13-.13h-.14.14s0 0 0-.14zm.14-.41c.14-.14.14-.14 0 0 .14 0 .14 0 0 0zm.41-.41c0 .14 0 .14-.14.14l-.14.14s0-.14 0-.27h.28c0-.15 0-.15 0-.01zm.14-.41-.14.14c0-.01 0-.14.14-.14 0-.14.13 0 0 0zm.13-.41c.14.13 0 .13 0 0zm.69-3.15c-.14.68-.27 1.5-.55 2.19.27-.41.41-.96.41-1.5v.82c-.14.27-.14.55-.27.68-.14.27-.14.55-.27.68-.14.27-.14.55-.27.68-.14.41-.41.96-.82 1.37l-.82 1.23s0 0-.14 0c0 .14-.14.41-.27.55-.14.14-.27.27-.41.55h-.14s0 0-.14 0c-.27.41-.68.68-1.09.96l-1.23.82h-.14-.14c0-.14 0-.14.27-.14.14 0 .27-.14.27-.14-.14 0-.14 0-.27 0-.14 0-.14.14-.27.14 0-.14.14-.14.14-.27v-.14c.27-1.23.41-2.6.68-3.83s.41-2.6.68-3.83h.14c0-.27.14-.55.14-.82s.14-.55.14-.96c.55-.41.96-.82 1.64-1.09.68-.41 1.5-.55 2.19-.27 0 .14.14.14.27.27.14 0 .14.14.14.14.13.41.26 1.23.13 1.91zm-1.92 4.65c0 .14 0 .14 0 0-.14.14-.14.14-.14.14.14.13.14 0 .14-.14.14.14.14.14 0 0zm.28-.27s0 .14-.14.14c.14-.01.14-.14.14-.14.14 0 .14-.14.14-.14s-.14 0-.14.14zm-.69 1.09c0-.14 0 0 0 0zm.28-.41.14-.14c-.14 0-.14 0-.14.14-.14 0-.14 0 0 0zm42.09-3.69c0-.14 0-.14 0 0zm.14 2.87c0-.14 0-.14 0 0zm-7.38 4.65c0-.14 0-.14 0 0zm-14.49-1.23c.14 0 .14 0 0 0zm21.73-3.56c.14 0 .14 0 0 0 0-.13 0-.13 0 0zm-9.43 4.38c0 .13 0 .13 0 0zm9.43-4.65c.14 0 .14 0 0 0zm-9.16 4.37c0 .14 0 .14 0 0zm-14.48-2.46c-.14.14-.14.14 0 0zm7.79-10.93c-.27-.14-.55-.27-.82-.41s-.68-.14-.96-.14c-.27 0-.55-.14-.82-.14 0 0-.14.14-.14 0h-.13v.14h-.14c0 .14 0 .14.14.14s.14 0 .14.14c-.14.14-.27.27-.41.14 0-.14 0-.14.14-.14s.14 0 .14-.14c-.27 0-.55.14-.82.27-.27.14-.41.27-.55.55v-.14c-.14 0-.27.14-.41.27-.14.14-.27.14-.41.27v.14c-.41.41-.96.68-1.37 1.09-.41.27-.82.68-1.23 1.09h.14l.14-.14h.14.14s0 0 .14-.14c0 .14 0 .14-.14.14v.14s0 .14-.14.14c0 0-.14 0-.14.14 0 0 0 .14-.14 0 0 .14-.14.14-.27.27v-.14s0 0 0-.14c-.27.14-.41.27-.55.41-.14.27-.27.41-.41.55-.14.27-.27.55-.41.82s-.27.68-.14 1.09h-.14v.14h.14c0 .27.14.55.27.68.14.27.27.55.41.82l.41.55.55.55c.41.27.68.41 1.09.55s.82.27 1.23.27l1.23.27c.41.14.82.27 1.23.41h.14.14c0 .14 0 .14-.14.14 0 0 0 .14 0 0s0-.14 0-.14v.14c0 .14 0 .14-.14.14s-.14 0-.14.14h.14s0 0-.14 0c-.27.27-.41.55-.68.68-.27.27-.55.41-.82.68 0 0 0 0-.14 0s-.41.14-.55.27c-.14.14-.41.14-.68.27-.27.14-.55.14-.68.27-.27 0-.55.14-.82 0-.14-.14-.14-.27-.14-.41s0-.27-.14-.14c0-.14 0-.27.14-.41s.14-.14.14-.27v-.14s0 0 0-.14c.14 0 .14-.14.14-.14l.14-.14c-.14 0-.14 0-.14 0l-.14.14c.14-.14.27-.41.41-.41.14-.14.27-.14.41-.27h-.14s0 0-.14 0 .14-.14.14-.14 0 0 0-.14 0 0-.14 0 0 0-.14 0h.14s.14 0 .14-.14l-.14-.14c-.41.14-.82.41-1.23.82-.41.27-.68.68-1.09.96v.14l-.14.14-.14-.14h-.13c0 .14.14.14.14.14s.14.14 0 .14c.41.41.68.82.96 1.23.27.41.82.68 1.37.82.14 0 .41 0 .55.14.55 0 1.09-.14 1.64-.27.55-.14.96-.27 1.37-.55.55-.14 1.09-.55 1.5-.96.55-.41.82-.82.96-1.5.14-.27.14-.55 0-.68-.14-.14-.27-.41-.41-.55-.68-.68-1.37-1.23-2.19-1.5-.96-.41-1.91-.68-2.87-.96-.27 0-.55 0-.82-.14s-.55-.14-.68-.27c.14-.14.14-.27.14-.41l.41-.55c.14-.14.14-.41.27-.55.82-.82 1.64-1.78 2.6-2.46.96-.82 1.91-1.5 3.01-2.05v.55.55c0-.14 0-.14.14-.14l.11.16v-.14-.14.14l.14-.14.14-.14v.14.14s.14 0 .14-.14c0 0 0-.14.14-.14v.14-.14-.14.14c0-.14 0-.14.14-.14v.14c.14-.14.27-.41.27-.68s.14-.41.27-.55c.67-.13.4-.4.13-.67zm-8.61 4.23c0-.13 0-.13 0 0zm0-.13c.13-.14.13-.14 0 0zm.27.13c-.14 0-.14 0 0 0-.14 0-.14.14 0 0-.14.14-.14.27-.14.14-.13 0-.13 0 .14-.14-.14 0-.14 0 0 0 0-.13 0-.13 0 0zm0-.13c0-.14 0-.14 0 0 .14-.14.14 0 0 0zm.96 8.88c0 .14-.14.14 0 0-.14 0-.14 0 0 0zm2.32-.27c0 .14 0 .14 0 0zm-.68-11.35c.13 0 .13 0 0 0 0 0 0 .14 0 0-.14 0-.14 0 0 0zm-.55.41c.14 0 .14-.14.14-.14.13.01 0 .14-.14.14zm-.55.55c-.13.14-.13.14 0 0zm-.13.14c-.14-.14 0 0 0 0zm-.14.41c-.14.14-.41.27-.55.41 0 .14 0 .14 0 0 .14-.14.28-.28.55-.41.14-.27.27-.41.41-.55-.14.27-.27.41-.41.55zm.27-.69c0-.13.14-.13 0 0 .14.14.14.14 0 0zm.28-.13c0-.14 0-.14 0 0 .14-.14.14-.14.14-.14.13 0-.01 0-.14.14.13 0 .13 0 0 0-.14 0-.14 0 0 0zm.13.13-.14.14v-.14c.14 0 .14 0 .27-.14.01.14.01.14-.13.14zm.14-.27c.14-.14 0 0 0 0zm.27 0c-.13 0-.13 0 0 0 0 .14-.14.14-.14.14-.13 0 .01 0 .14-.14-.13 0-.13 0 0 0zm0-.27c0-.14 0 0 0 0zm.55-.14c0 .14-.14.14-.14.14-.14 0-.14.14-.14.14 0-.14 0-.14 0-.27h.28c0-.15 0-.15 0-.01 0-.14 0 0 0 0zm0-.41s0 .14 0 0c-.14.14-.14.14 0 0 .14 0 .14.14 0 0zm.41-.27c0 .13 0 .13 0 0zm.14.13c.13-.13.13-.13 0 0zm.27-.13c.14-.14.14-.14.14-.14 0 .14-.14.14-.14.14zm.14-.28c-.14 0-.14 0 0 0-.14-.13 0 0 0 0zm0 .14h.14zm.82-.82c.14 0 .14-.14.14-.14 0 .14-.14.14-.41.27.27.01.27.01.27-.13zm-.28.27c.14-.14.14-.14.14 0h-.14c-.13.14-.13 0 0 0zm-.27.28s.14-.14.27-.14c-.13.27-.13.27-.27.14zm.55-.14c-.14.14-.14 0 0 0-.14 0-.14.14-.14 0h.14c-.14 0-.14 0 0 0zm.13-.14s.14 0 0 0c.14 0 .14 0 0 0s0 0 0 0zm.14.14c0 .14-.14.14-.14.14 0-.14 0-.14.14-.14zm.14-.27c0 .13-.14.13 0 0-.14 0 0 0 0 0zm0-.28s-.14.14 0 0c-.14 0-.14 0 0 0 0 0 0 .14 0 0zm.13.41c0-.13 0-.13 0 0zm2.05 2.05c0 .14 0 .14 0 0zm0-.13s.14.13 0 0c.14.13 0 .13 0 0zm.14-.14c-.14-.14-.14-.27-.14-.27 0-.14 0-.27.14-.41 0 .14.14.27 0 .27zm-5.74 8.34c-.14 0-.14 0-.14.14 0 0 0 0 .14-.14-.14.14-.14 0 0 0zm-.55.27c.14 0 .14 0 0 0 .14-.13.14-.13 0 0zm.28-.13c-.14.13 0 .13 0 0zm-.82-7.25c.13 0 .13-.14 0 0 0-.14-.14-.14 0 0zm-3.42.27c-.14-.14-.14-.14 0-.27-.14 0-.14 0-.27 0l-.27-.27h-.27c-.14 0-.27 0-.27-.14-.14 0-.27 0-.41 0h-.27c0 .14 0 .14-.14 0s-.14-.14-.14 0h.14v.14c-.14.27-.14.55-.27.82-.14.27-.27.55-.41.82.14 0 .14-.14.14-.27s.14-.14.14-.27c0 .14-.14.41-.27.55s-.14.27-.14.41 0 .27-.14.27c0 .14-.14.14-.14.14v.14.14c0-.14-.14-.14-.14 0 0 0 0 0-.14 0 0 0 0 .14.14.14-.14 0-.14 0-.14 0v.14c0 .14 0 .27-.14.41-.27.14-.41.27-.41.27-.14.41-.41.82-.68 1.09s-.55.68-.68 1.09c0-.14 0-.14 0-.14v-.14c-.41.41-.68.96-.96 1.5-.14.14-.14.27-.27.41h.14c.14-.27.27-.55.55-.82s.41-.55.55-.82c0 .27-.14.41-.27.55-.14.14-.27.41-.27.55-.14 0-.14.14-.14.14 0 .14-.14.14-.27.14v.14.14c-.14 0-.14 0-.14 0v-.14c-.27.41-.55.68-.82.96 0-.55 0-1.09 0-1.78.14-.55.14-1.09.27-1.78.14-.55.27-1.23.41-1.78.14-.68.14-1.23.27-1.91-.14-.14-.27-.27-.41-.27-.14-.14-.27-.14-.41-.14h-.14c0-.14 0 0 0 0-.14 0-.41 0-.55 0-.27 0-.55 0-.82.14v-.14s0 0-.14 0v.55.41l.14-.14s0-.14.14 0c-.14.55-.41 1.09-.41 1.78-.14.55-.27 1.23-.27 1.91 0 .27 0 .55-.14.96v.96.96c0 .27.14.55.27.82-.15-.16-.29-.3-.29-.57 0-.14 0-.41-.14-.55 0 .14 0 .14-.14.14.14 0 .14-.14 0-.14v.14s.14 0 .14.14v.14.14s.14.14.14.27c0 .14 0 .27.14.27 0 0 .14.14.27.14.14 0 .14.14.27.14l.27.27c0 .14.14.14.14.27.14.14.41.27.68.41s.55.14.82.14c.41-.14.82-.41 1.23-.68s.68-.68.96-.96c.27-.41.55-.82.82-1.09.27-.41.55-.82.82-1.09-.14.55-.14 1.09 0 1.64.14.41.27.82.41 1.23s0 0 .14.14v.12c.27.14.55.27.82.55.27.27.55.41.82.55.27 0 .41 0 .68-.14.14 0 .27-.14.27-.41 0-.14-.14-.27-.14-.41s-.14-.27-.14-.27c-.14 0-.41-.14-.41-.27-.14-1.09 0-2.05.14-3.14s.41-2.05.68-3.01c0-.41 0-.68.14-1.09s.14-.82.14-1.23c-.67-.02-.81-.16-.81-.16zm-8.61.55c0-.14 0-.14 0 0zm0 .27s0 .14 0 0c0 .14 0 .14 0 0zm-.68 4.93c0 .13 0 .13 0 0 0-.14.13-.14 0 0zm.13-.55c0 .14 0 .14-.14.27.01 0 .01-.13.14-.27 0-.14 0-.14 0-.27zm0-.41c0-.14 0 0 0 0 0 .14 0 .14 0 0zm.14-.55c0 .14-.14.14 0 0zm.14-.68c0-.14 0-.14 0 0zm0-.14c0-.13 0-.13 0 0zm0-.54c.13-.14.13 0 0 0zm.27-.55c0 .14-.14.27-.14.41-.13-.14-.13-.27.14-.41 0-.14 0-.27 0-.41zm0-.55c.14 0 .14 0 0 0zm.14-.27c0-.14.14-.14.14-.14-.14 0-.14 0-.14.14zm1.64 5.88c-.14.14-.14.27-.27.27 0 .14-.14.14-.14.14l.14-.27c.13-.01.13-.14.27-.14zm.13-.14v-.14l.14-.14c0 .14-.14.28-.14.28zm3.83-5.06c0 .14 0 .14 0 0zm.68-2.19c.14 0 .14 0 0 0 .14.14.14.14 0 0zm-.13.55c-.14.14-.14.14 0 0zm.13-.14c0 .14 0 .14-.14.27 0 0 0 0 0-.14.14.01.14.01.14-.13s0-.13 0 0c.14-.13.14 0 0 0zm-.68.96v.14c0-.14 0-.14 0-.14 0-.13 0-.13 0 0zm-4.24 6.02c-.13 0-.13.13 0 0zm3.69-5.2c-.14.27-.27.55-.41.82.41-.41.68-.96.96-1.5-.27.27-.41.41-.55.68zm-.68 1.1c-.14.27-.41.68-.55.96s-.41.55-.55.82c.42-.55.83-1.1 1.1-1.78zm-2.87 1.64c0 .14 0 .27-.14.41 0 .14-.14.27 0 .41 0-.14 0-.27.14-.41 0-.14 0-.28 0-.41zm-2.73 2.73c0 .14 0 .14 0 0zm27.06 2.87c.13 0 .13 0 0 0zm-20.09-1.78c0-.14 0-.14-.14-.14 0 .01 0 .14.14.14zm9.43.14s0 .14 0 0c.13 0 .13 0 0 0zm-13.94-2.46c0 .14 0 .14 0 0zm19.27 0c-.14 0-.14 0 0 0v.14c0 .13 0 0 0-.14zm-14.22-6.84c0 .14 0 .14 0 0zm3.83 2.74v.14zm0-.14v-.14c0-.14 0-.14 0 0v.14c0 .14 0 .14 0 0zm-18.04 6.29c0 .14 0 .14 0 0zm-14.9-6.29v.41c0-.13 0-.27 0-.41.14-.13.14-.27.14-.41-.14.14-.14.28-.14.41zm-.27.96c.14 0 .14-.14.14-.27s0-.14 0-.27c0 .14-.14.14-.14.27zm.27-1.37c.14-.41.14-.82 0-1.09-.14-.41-.27-.68-.41-.96.14.27.27.55.41.96.14.27.14.68 0 1.09zm-.41 1.51c.14 0 .14 0 0 0v.27s.14-.14 0-.27c.14 0 .14-.14 0 0zm-2.19 4.51c-.13 0-.13 0 0 0-.13.13 0 0 0 0zm1.23-2.19v.14s0 0 0-.14 0-.14 0 0zm0-.14c.14 0 .14 0 0 0zm15.04 4.1c0-.13 0-.13 0 0zm-14.49-5.19c0 .14 0 .14-.14.27-.14 0-.14.14 0 .27 0-.14.14-.14.14-.27s0-.13 0-.27zm-.27.55c0 .13.13.13 0 0zm.54-1.1c.14-.14.14-.27 0-.27v.27c-.14.14-.27.27-.14.41.01-.13.01-.27.14-.41zm-.68 1.23v.14s0 0 0-.14c.14.14.14 0 0 0zm.82-5.47c-.14 0-.14 0 0 0zm0 .14c0-.14 0-.14 0 0-.14-.14 0 0 0 0zm78.59 7.25c0 .13 0 .13 0 0zm0 0h.14v-.14s0 .14-.14.14zm1.09 2.46c.14 0 .14 0 0 0zm-64.51 2.18c.14 0 .14 0 0 0 .14-.13.14-.13 0 0zm71.21-9.43v-.14c0-.14 0-.14 0 0-.14.01-.14.01 0 .14-.14.14-.14.14 0 0zm5.06 6.7s0 .14 0 0zm-5.2-6.56v.14c.14 0 .14-.14 0-.14zm-7.79 4.78c0-.13 0-.13 0 0zm-.82.55c.14 0 .14 0 0 0zm-83.23 4.24v-.14-.14-.27s0 0-.14 0c0-.14 0-.27 0-.41-.14-.14-.14-.27-.27-.14 0-.14 0-.14 0-.14-.14 0-.14 0-.14-.14 0 0 0 0 0-.14v-.14c0 .14-.14.14-.14.14 0-.14 0-.14 0-.27l-.14-.14c0 .14-.14.27-.14.41v.41c-.14 0-.14 0-.14 0v.14c-.14-.41-.27-.96-.41-1.5-.14-.55-.14-.96-.14-1.5 0-.55 0-.96 0-1.37s0-.96 0-1.37v-.14s0 0 0-.14c-.14-.96-.14-1.78 0-2.73.14-.96.14-2.05.14-2.87 0-.14 0-.27.14-.41 0-.14.14-.27.14-.41 0-.68 0-1.23.14-1.78s.14-1.23.27-1.78c0 0 0 0 0-.14 0 0 0 0 0-.14.14-1.37.41-2.6.68-3.96.27-1.37.41-2.6.68-3.96 0-.14.14-.41.14-.55 0-.27-.14-.55-.41-.82s-.55-.27-.82-.27c0 0 .14 0 0-.14s0 0-.14 0v.14h-.14c0 .14 0 .14-.14.14 0-.14-.14-.14-.14 0 0 0 0 .14-.14.14 0-.14 0-.14 0-.14-.14 0-.27 0-.41.14s-.27.14-.41.14v.14l.14.14c-.27 1.37-.55 2.73-.82 4.1-.27 1.5-.41 2.87-.55 4.37s0 0 0 0 0 0-.14 0c0 .14-.14.41-.14.55s0 .27.14.41h-.11c0 .14 0 .27-.14.41 0 .14-.14.41 0 .55 0 .14-.14.41 0 .68-.14.41-.41.82-.55 1.23s-.41.82-.68 1.09c-.27-.41-.68-.68-1.09-.68s-.96 0-1.37 0c-.55.14-.96.27-1.37.41-.41.27-.82.41-1.23.55v.14.14h.14.14c-.14.14-.14.27-.27.27-.14.14-.14.14-.27.27v.14c.14 0 .14 0 0 .14 0 0 0 0 0-.14l-.14.14v.14h-.14c0 .14-.14.27-.14.41-.14.14-.14.14-.14 0v.41c-.14.14-.14.14 0 .27-.14 0-.27.14-.27.41s-.14.41-.27.41c0 0 .14.14.14 0v.14s0 0-.14 0c0 0-.14.14-.14.27 0 .14-.14.14-.14.27 0-.14 0-.14 0-.14v.14h-.13s0 0 0-.14v.14s0 0 .14.14h.14.13.14-.14c0 .41-.14.68-.27 1.09-.14.27-.27.68-.27 1.09h.14v.14s-.14 0-.14-.14c-.14.55-.27 1.09-.27 1.64v1.78c.14.27.27.55.55.55.27.14.41.27.55.55.14 0 .14 0 .27.14.27.14.55.14.82.14 0 .14.14.14 0 0 .27 0 .55 0 .82-.14.55-.14.96-.41 1.37-.82s.68-.82.96-1.23l.96-1.37c.27-.68.68-1.37 1.09-2.05s.68-1.23 1.09-1.91c0 0 0 .14.14.14 0-.27 0-.41.14-.41 0 .55-.14 1.23 0 1.78v1.78c0-.14 0-.14 0-.27 0-.14 0-.27-.14-.27v1.09 1.09c.14 0 .14.14.14.14v.14c0 .68.14 1.23.27 1.91.14.55.41 1.09.68 1.5.14.14.27.27.41.27.14.14.27.27.41.41h.27c.14.14.41.27.68.41s.55.14.82.14.55-.14.82-.14c.27-.14.41-.27.41-.55v-.27c-1.24.25-1.24.25-1.37.12zm-12.85-6.02c.14 0 .14 0 0 0zm.14-.68c0 .14 0 .14 0 0 .13 0 .13 0 0 0zm2.87-5.2s0 .14 0 0c-.14 0-.14 0 0 0zm-.14.14c0 .14-.14.14 0 0zm-.96 1.23c-.13 0-.13 0 0 0-.13 0 0 0 0 0zm1.51 6.29s0 .14 0 0c-.14 0-.14 0 0 0zm0-.14c0 .14 0 .14 0 0 0-.13.13 0 0 0zm.13-.13c-.13.13-.13 0 0 0 .14-.14.14-.14 0 0zm.28-.41-.14.14c0-.01 0-.14.14-.14 0-.14 0-.14.14-.27-.01.13-.01.13-.14.27zm.13-.41c0-.14 0-.14 0-.14s.14 0 0 .14c.14 0 .14.13 0 0zm.28-.41c0 .13 0 .13 0 0-.14.13-.14 0 0 0zm.41-.69c0 .14 0 .14 0 0zm.27-.27s0-.14 0-.27c0-.14.14-.14.14-.14-.14.14-.14.27-.14.41zm.14-.41c-.14 0-.14 0 0 0 .13-.14.13-.14 0 0zm-.69.68c-.27.41-.55.96-.82 1.37s-.55.82-.82 1.23-.68.82-1.09 1.09c0-.14 0-.27 0-.41s0-.27-.14-.41c.14-.82.27-1.78.55-2.6s.55-1.78.82-2.6v-.14s0 0 0-.14c.27-.55.68-1.23.96-1.78.27-.55.68-1.09 1.23-1.37h.14.14v-.14l.14.14h.12c.14.27.27.41.27.68.14.14.27.41.27.68h.27.29c-.27.55-.55.96-.82 1.5-.27.55-.55.96-.82 1.5-.14.58-.41.99-.69 1.4zm1.1-1.5c0 .14 0 .27-.14.27 0-.14 0-.14.14-.14 0 .01 0 .01 0-.13.14-.14.14-.14 0-.14.13-.13.13 0 0 .14.13 0 .13 0 0 0zm.41-.68v.14s0 0-.14 0c0 .14 0 .14-.14.14v-.14-.14-.14h.14c.14.27.14.14.14.14 0-.14 0-.14 0 0 .13-.14 0-.14 0 0zm.41-.69-.14.14v.14-.14s0-.14.14-.14c-.14-.14 0-.14 0-.14.13.14 0 .14 0 .14zm0-.13c.13 0 .13 0 0 0zm.41-.55c-.14.14-.14.14-.14.27s0 .14-.14.14c0-.14 0-.14 0-.27.14 0 .14-.14.28-.14-.14-.14 0-.14 0 0 0-.14 0-.14 0 0zm.13-.41c-.13.27-.13.27 0 0-.13 0-.13 0 0 0 0-.14 0-.14 0 0zm.28-.27c0-.14 0-.14 0 0zm.82-1.78c-.14 0-.14 0 0 0zm0-.14c.13 0 .13-.14 0 0 .13-.14.13 0 0 0zm.13-.27c0 .13 0 .13 0 0s0 .13 0 0zm.14-.14c0-.14 0-.14 0 0zm.55 3.97c-.14 0-.14 0 0 0zm-.28 1.09v-.27c0-.14 0-.27 0-.41s0-.27 0-.41v.14.27.41.27c0 .14 0 .14-.14.27.14-.13.14-.27.14-.27zm0 .41c0-.14 0-.14 0 0zm-.13.14c.14 0 .14 0 .14.14-.01-.01-.14-.01-.14-.14zm.13.27c-.13.14-.13.14 0 0 0-.14 0-.14 0 0zm0 .27v.27c-.13.01-.13-.13 0-.27 0-.13 0 0 0 0zm0 .55c0 .27 0 .41 0 .27-.13-.13-.13-.27 0-.27-.13-.14 0-.14 0 0zm-.13 1.78c.13-.14.13 0 0 0zm.13 1.36s-.13.14 0 0c-.13-.27 0-.13 0 0zm-.13-1.64s.13 0 0 0c.13 0 .13 0 0 0zm.13-.41c-.13.14-.13.14 0 0 0-.13 0-.13 0 0zm-.13-.41c.13-.13.13-.13 0 0 0 .14 0 .14 0 0zm.13.69c0-.14 0-.14 0 0zm0-.96c0 .14 0 .14 0 0-.13.14-.13 0 0 0-.13 0 0 0 0 0zm-.27.82v.14.14l-.14-.14v-.14zm.14.68s0 .14 0 0c-.14 0-.14 0 0 0zm.13 1.64s-.14 0-.14-.27c.14.27.14.27.14.27zm-.13.14c.13 0 .13 0 0 0 .13.14.13.14 0 0 .13.14 0 .14 0 0zm.13.41c0-.14 0-.14 0 0zm0-4.78c0-.14 0-.14 0 0 0-.14 0-.14 0-.14.14-.14.14 0 0 .14.14 0 .14 0 0 0zm.28-1.64c0-.14-.14-.14 0 0-.14 0-.14-.14 0 0 0-.14 0-.14 0 0zm.13-6.43c-.13 0-.13 0 0 0 .14-.14.14-.14 0 0zm0-.55v-.14c.14-.13.14.01 0 .14.14 0 .14 0 0 0zm.14-.27s-.14-.14 0-.14v-.14s.14 0 0 .14zm.41-3.69c0-.14.14-.14 0 0 .14.14 0 .14 0 0zm0 .27v.14-.14c0-.13 0-.13 0 0zm-.14.41c0-.13 0-.13 0 0zm-.13 1.1c0-.14 0-.14 0-.27.14 0 .14.27 0 .41zm.13-.41c.14 0 .14 0 0 0-.13.13-.13.13 0 0zm-.13.82c0-.14 0-.14 0 0zm-.14.82c.14-.14.14-.14 0 0 0 .13 0 .13 0 0zm.14.41c0-.14 0-.14 0 0zm.13-.28v.14c-.13 0-.13-.14 0-.14-.13 0-.13 0 0 0-.13 0-.13-.13 0 0 0-.13 0-.13 0 0zm0 .14c0-.14 0-.14 0 0zm0-.27c0-.14 0-.14 0 0zm0-1.23c0-.14 0-.14 0 0zm0-.82v.14c-.13-.01-.13-.14 0-.14 0-.14 0-.14 0 0 .14-.14.14-.14 0 0zm.28 0v.14c-.14-.01-.14-.01 0-.14-.14 0-.14 0 0 0zm0-1.64c0-.28 0-.14 0 0zm.27-.82c0-.14 0-.14 0 0zm.14-1.1c-.14 0-.14.14 0 0 0 .27 0 .27-.14.14-.14-.14 0 0 .14-.14-.14 0-.14 0 0 0-.14-.13-.14-.13 0 0 0-.13 0 0 0 0zm0-.27v.14s-.14 0 0-.14c-.14 0 0 0 0 0 0-.14 0-.14 0 0zm.13-.96c0 .14 0 .14 0 0s0-.13 0 0zm1.51 22.42c-.14 0-.14 0 0 0zm1.5-4.65c0-.13 0-.13 0 0zm83.1 1.23c0 .14 0 .14 0 0zm7.11-11.34c-.27-.14-.68-.14-.96-.14s-.55-.14-.82-.14c0 0-.14.14-.14 0h-.14v.14h-.14s0 .14.14.14.14 0 .14.14c-.14.14-.27.27-.41.14 0-.14 0-.14.14-.14s.14 0 .14-.14c-.27 0-.55.14-.82.27-.27.14-.41.27-.55.55v-.14c-.14 0-.27.14-.41.27s-.27.14-.41.27v.14c-.41.41-.96.68-1.37 1.09-.41.27-.82.68-1.23 1.09h.14l.14-.14h.14.14s0 0 .14-.14c0 .14 0 .14-.14.14h-.15v.14s0 .14-.14.14c0 0-.14 0-.14.14 0 0 0 .14-.14 0 0 .14-.14.14-.27.27v-.14s0 0 0-.14c-.27.14-.41.27-.55.41-.14.27-.27.41-.41.55-.14.27-.27.55-.41.82s-.27.68-.14.96v.14c0 .14-.14.14-.14.14-.14.14-.27.27-.41.55-.14 0-.14 0-.27.14 0 .14-.14.27-.14.27-.14 0-.27.14-.27.27-.14.14-.14.27-.14.41h-.14s0 .14-.14.14c-.14.14-.27.27-.41.41s-.27.27-.41.41 0 0 0 0c-.27.41-.68.82-1.09 1.09s-.68.68-1.09 1.09c0 .14-.14.27-.27.27-.14.14-.27.27-.27.41-.14 0-.27 0-.27.14s-.14.14-.27.27c-.27.27-.68.55-.96.82s-.68.55-.96.68c-.41.27-.68.41-1.09.55s-.82.27-1.37.27c-.27-.27-.41-.68-.55-1.09s-.14-.96-.14-1.37 0-.96.14-1.37c0-.41.14-.82.27-1.23.27-.14.68-.27.96-.41s.55-.27.82-.55h.14c.96-.82 1.91-1.78 2.73-2.73.96-1.09 1.64-2.19 2.05-3.42 0-.14 0-.14 0-.14v.14c0-.14.14-.27.14-.41s0-.27.14-.41c0-.68-.41-1.23-.82-1.5-.55-.27-1.23-.41-1.78-.41-.14 0-.27-.14-.27-.14-.14 0-.27 0-.41-.14-.55.41-1.09.96-1.64 1.37-.55.55-.96 1.09-1.23 1.64l.14.14h-.14c-.14 0-.14.14-.14.27s0 .14-.14.27c0-.14 0-.14 0-.14l-.14.14c-.27.41-.55.96-.82 1.37-.27.55-.55 1.09-.82 1.78 0 .14-.14.27-.27.41s-.14.27-.27.41c-.14.55-.41.96-.55 1.5-.14.55-.27 1.09-.27 1.64v1.64c0 .55.27 1.09.55 1.5.14.27.27.41.41.68l.41.68c.14.27.27.41.55.55l.55.55.41.14c.14 0 .27.14.41.14h.27l.27.14h.27.27c.55 0 1.09-.14 1.5-.27.41-.14.82-.41 1.23-.68s.68-.55 1.09-.82c.27-.27.68-.55.96-.96 0 0 0 0 0-.14h-.14.14v-.14c.68-.68 1.23-1.37 1.91-2.05.55-.68 1.23-1.5 1.78-2.19 0-.14 0-.27.14-.27s.14-.14 0-.27c.14.14.14.14.14 0s0-.14.14 0c.14-.27.27-.68.41-.96 0 .14.14.27.14.41l.41.55.55.55c.41.27.68.41 1.09.55s.82.27 1.23.27l1.23.27c.41.14.82.27 1.23.41h.14.14c0 .14 0 .14-.14.14 0 0 0 .14 0 0s0-.14 0-.14v.14c0 .14 0 .14-.14.14s-.14 0-.14.14h.14s0 0-.14 0c-.27.27-.41.55-.68.68-.27.27-.55.41-.82.68 0 0 0 0-.14 0s-.41.14-.55.27c-.14.14-.41.14-.68.27-.27.14-.55.14-.68.27-.27 0-.55.14-.82 0-.14-.14-.14-.27-.14-.41s0-.27-.14-.14c0-.14 0-.27.14-.41.27 0 .27-.14.27-.14v-.14s0 0 0-.14c.14 0 .14-.14.14-.14l.14-.14c-.14 0-.14 0-.14 0l-.14.14c.14-.14.27-.41.41-.41.14-.14.27-.14.41-.27h-.14s0 0-.14 0 0 0 0 0l.14-.14s0 0 0-.14 0 0-.14 0 0 0-.14 0h.14s.14 0 .14-.14l-.14-.14c-.55.27-.96.55-1.37.82s-.68.68-1.09.96v.14l-.12.18-.14-.14h-.14c0 .14.14.14.14.14s.14.14 0 .14c.41.41.68.82.96 1.23s.82.68 1.37.82c.14 0 .41 0 .55.14.55 0 1.09-.14 1.64-.27.55-.14.96-.27 1.37-.55.55-.14 1.09-.55 1.5-.96.55-.41.82-.82.96-1.5.14-.27.14-.55 0-.68-.14-.14-.27-.41-.41-.55-.68-.68-1.37-1.23-2.19-1.5-.96-.41-1.91-.68-2.87-.96-.27 0-.55 0-.82-.14s-.55-.14-.68-.27c.14-.14.14-.27.14-.41l.68-.41c.14-.14.27-.41.27-.55.82-.82 1.64-1.78 2.6-2.46.96-.82 2.05-1.5 3.14-2.05v.55.55c0-.14 0-.14.14-.14l.14.14v-.14-.14.14l.14-.14.14-.14v.14.14l.14-.14s0-.14.14-.14v.14-.14-.14.14c0-.14 0-.14.14-.14v.14c.14-.14.27-.41.27-.68s.14-.41.27-.55c0-.27-.14-.68-.41-.82-.16-.28-.43-.42-.7-.55zm-12.72 2.73v-.14c.14 0 .14.14 0 .14.14 0 .14 0 0 0v.14s0 0 0-.14zm-4.51-1.09c0-.14 0-.14 0 0 .14-.14.14 0 0 0s-.13 0 0 0zm-.27.41c.14-.14.14-.14.14-.14h.14v.14c-.14-.14-.28-.14-.28 0-.14 0-.14 0 0 0zm-.27.13c.13 0 .13-.13 0 0 .27-.13.13 0 0 0 .13 0 .13 0 0 0 .13.14.13.14 0 0zm-.14 0c-.14 0 0 0 0 0zm0 .28c-.14 0 0-.14 0 0zm-.14.13c0 .14 0 .14 0 0-.13 0 0 0 0 0zm-.13.14c0 .14 0 .14 0 0-.14.14-.14 0 0 0zm-.14.27c0-.13.14 0 0 0 .14 0 .14 0 0 0s0 0 0 0zm.82 2.47c.41-.68.68-1.37.96-2.05.41-.41.68-.82 1.09-1.23s.82-.82 1.23-1.09c0 0 .14.14 0 .14v.27c0 .14-.14.41-.14.55-.14.14-.14.27-.14.55-.55.96-1.23 1.78-1.91 2.73-.68.82-1.37 1.64-2.19 2.32.42-.83.69-1.51 1.1-2.19zm-1.09-2.06c.14-.14.14-.14.14-.27-.01.14-.01.14-.14.27 0 .14 0 .14 0 0-.14.14-.14 0 0 0zm-.28.28c0-.14.14-.14.14-.14s0 .14-.14.14v.27c-.13-.14-.13-.14 0-.27zm-.27.41c.14 0 .14 0 0 0 .14-.14.14 0 0 0 .14 0 0 .13 0 0zm-2.6 6.29c0 .13 0 .13 0 0zm1.1-3.15c-.41.82-.68 1.5-.82 2.46 0-.82.27-1.64.82-2.46.27-.68.55-1.37.82-2.05h.14c-.42.69-.69 1.37-.96 2.05zm10.66.82c0-.13 0 0 0 0zm3.28 5.33c0 .14 0 .14 0 0-.14.14 0 0 0 0zm2.32-.27s.14 0 0 0c.14.14 0 .14 0 0zm-.68-11.35c.14 0 .14 0 0 0 0 .14 0 .14 0 0zm-.55.41c.14 0 .14-.14.14-.14.14.14.14.14-.14.14.14 0 .14 0 0 0zm-.54.55c-.14.14-.14.14 0 0zm-.14.14c0 .13 0 .13 0 0 0-.14 0 0 0 0zm-.14.13c-.13 0-.13 0 0 0zm-.95.96s0 .14 0 0zm-.28.55c0-.14.14-.14 0 0 .14-.14.14 0 0 0 .14 0 .14 0 0 0zm0 .13c0-.13 0-.13 0 0s0 .14 0 0c-.14.14-.14.27-.14.14.01 0 .01 0 .14-.14-.13 0-.13 0 0 0zm-.13-.13c.13-.14.13-.14 0 0-.14 0-.14 0 0 0zm1.36-1.23c-.14.14-.41.27-.55.41 0 .14 0 .14 0 0 .14 0 .28-.28.55-.41.14-.27.27-.41.41-.55-.13.27-.27.41-.41.55zm.41-.69c0-.13 0-.13 0 0s0 .14 0 0zm.14-.13c.14 0 .14-.14 0 0 .14-.14.14-.14.14-.14.13 0 .13 0-.14.14.14 0 .14 0 0 0zm.27.13-.14.14v-.14c.14 0 .14 0 .27-.14-.13.14-.13.14-.13.14zm.28-.27s0 .14 0 0c0 .14-.14.14-.14.14s0 0 .14-.14c-.14 0 0 0 0 0zm.13-.27c0-.14 0 0 0 0zm.41-.14c0 .14-.14.14-.14.14-.14 0-.14.14-.14.14 0-.14 0-.14 0-.27h.28c0-.15 0-.15 0-.01zm.14-.27c-.14 0-.14 0 0 0-.14-.14 0-.14 0 0 0-.14 0 0 0 0zm.27-.28c0-.13 0-.13 0 0zm.28 0c-.14 0-.14 0 0 0 0-.13 0-.13 0 0zm.13-.13c.14-.14.14-.14.14-.14 0 .14 0 .14-.14.14zm.14-.28c0-.13 0 0 0 0zm0 .14h.14s0 0-.14 0zm.96-.68c.14 0 .14-.14.14-.14 0 .14-.14.14-.41.27.13-.13.13-.13.27-.13zm-.41.13s.13 0 0 0c.14-.14.14-.14.14 0h-.14c-.14.14-.14.14 0 0zm-.14.41s.14-.14.27-.14c-.13.14-.27.14-.27.14zm.41-.27c-.14 0-.14.14-.14 0s0 0 .14 0c-.14 0-.14 0 0 0zm.14-.14c.13 0 .13 0 0 0zm.13.14c0 .14-.14.14-.14.14.01-.14.14-.14.14-.14.14 0 .14 0 0 0zm.14-.27c0 .13 0 .13 0 0zm0-.14c0-.14 0-.14 0 0 0-.14 0 0 0 0zm2.19 2.32c.13 0 .13 0 0 0 .13.14.13.14 0 0zm0-.13c.13.13.13.13 0 0zm.13 0c-.14-.14-.14-.27-.14-.27 0-.14 0-.27.14-.41 0 .14.14.27 0 .27zm-81.32 2.59c-.55-1.5-1.91-2.73-3.55-3.01-.27 0-.55.14-.82.14-.27.14-.68.14-.96.14 0 0 0 .14-.14.27-.14.14-.14.14-.27 0-.14 0-.14.14-.27.14s-.27 0-.27 0c0 .14-.14.41-.27.55s-.27.27-.41.41c-.27.55-.68.96-.82 1.64-.27.55-.41 1.09-.55 1.78-.14.55-.14 1.09-.27 1.5-.14.41-.14.96-.14 1.37v.14.14c-.14.55-.14.96 0 1.5.14.41.27.82.41 1.23.27.41.55.68.82.96s.55.55.96.68c.27 0 .41.14.68.14.27.14.55.14.82 0 .41-.14.82-.27 1.09-.41.27-.27.68-.41.96-.82.27-.27.55-.68.68-.96.14-.41.41-.68.55-1.09.41-.68.68-1.23.96-1.91.27-.68.55-1.23.82-1.91-.14-.27 0-.41.14-.68.12-.16.12-.43.12-.7-.27-.14-.27-.69-.27-1.24zm-8.61 4.24c.14.14 0 .14 0 0 0 .14 0 .14 0 0-.14.14 0 0 0 0zm-.14.96c.14.14.14.27.14.55v.68c0-.14 0-.41 0-.55-.14-.41-.14-.54-.14-.68zm0 1.37c0-.14 0-.14 0 0 0 .13 0 .13 0 0zm0 .27s.14 0 0 0c.14 0 .14 0 0 0 0 .14 0 .14 0 0zm.14-1.64c-.14 0-.14-.14-.14-.27 0-.14 0-.27 0-.41.14 0 .14.14 0 .27-.14.14-.14.27 0 .27.14-.13.14-.13.14.14.14 0 .14 0 0 0zm1.37-5.06s0 .14 0 0c0 .14-.14 0 0 0zm.54-1.37c-.14.27-.27.41-.41.68s-.27.68-.41.96c-.14.41-.27.68-.41.96 0 .27-.14.41-.14.68 0 .14-.14.41-.14.55 0 .27 0 .55-.14.82s-.14.55-.14.82c0-.27 0-.55 0-.82.14-.27.14-.55.14-.82s0-.41.14-.68c.14-.14.14-.41.14-.55h.14c.14-.41.14-.68.27-1.09.14-.27.27-.68.41-.96 0-.14.14-.27.14-.27.28 0 .28-.14.41-.28.14-.13.14-.13 0 0zm1.23-1.09c.14 0 .14 0 0 0zm-.95.68c0 .14 0 .14 0 0-.14.14-.14.14 0 0 .13 0 .13 0 0 0zm.13-.13c0-.14 0-.14 0 0 .14-.14.14-.14 0 0 .14 0 0 .13 0 0zm1.64 7.65c0 .14-.14.14-.27.27v.14c0 .14 0 .14-.14 0h.14c0-.14 0-.14 0-.14 0-.13.14-.27.27-.27 0-.14 0-.14.14-.27-.14 0-.14.14-.14.27zm.14-.54c.14 0 .14 0 0 0zm.27-.41c0 .14-.14.14-.14.14 0-.14.14-.41.27-.41.01.13-.13.27-.13.27zm-.54.68v.27c-.27 0-.41.14-.41.41 0 .14-.14.41-.27.41-.14.27-.27.55-.68.68 0-1.37.14-2.73.27-4.1.14-1.23.55-2.32.96-3.42v.14c.14-.14.27-.41.27-.55 0-.27.14-.41.41-.41v-.14s0 0 0-.14h.14.14c0-.14 0-.27.14-.27 0-.14.14-.14.27-.14 0-.14 0-.14-.14-.14s-.14-.14-.14-.14h.14.27c.27.27.41.55.55.82s.27.55.27.96v.82c0 .27 0 .55-.14.82-.27.68-.55 1.5-.96 2.19-.41.56-.82 1.25-1.09 1.93zm.95-1.5c0 .14-.14.14-.14.27-.14 0-.14 0 0-.14.14-.13.01 0 .14-.13 0-.14 0-.14 0-.27.14.13.14.27 0 .27zm.28-.55-.14.14s0 0 .14-.14c.13-.14.13 0 0 0zm.13-.27v.14c-.13-.14-.13-.14 0-.14.14-.14.14-.14 0 0zm.28-.55c0 .14-.14.27-.27.27.13-.13.13-.27.27-.27 0-.14 0-.27 0-.41.13.14.13.27 0 .41zm.41-.82c-.14.14-.14.27-.14.41-.14-.14-.14-.27.14-.41 0-.14 0-.27 0-.41zm0-.55c.13.14.13.14 0 0zm.13-.27c0 .14 0 .14 0 0s0-.14 0 0zm0-.14v-.14c.14.01.14.01 0 .14zm.14-1.23v-.14s.14 0 0 .14c.14 0 .14 0 0 0 .14.14.14.14 0 0zm57.95 5.88.14.14h-.14zm.14-3.69c0-.14 0-.14-.14-.27 0 0 0 .13.14.27zm3.55 6.97c0-.14 0-.14 0-.27-.14 0-.14 0-.14 0s0 .14-.14.14c0-.14 0-.14.14-.14 0 0 0 0 0-.14s0 0 0 0 0 0-.14 0v-.14s0 0 0-.14c-.14 0-.27 0-.41.14s-.27.27-.41.14c-.27-.96-.27-1.78-.27-2.73.14-.96.14-1.91.14-2.73 0-.27 0-.55 0-.82s0-.55 0-.96c0-.82-.27-1.64-.68-2.32s-.96-.96-1.91-.96c-.41-.14-.82-.14-1.09 0-.41.14-.68.27-.82.68-.14.14-.27.27-.41.41s-.27.41-.41.55c0-.14-.14-.27 0-.27 0-.14 0-.27 0-.41-.14-.14-.27-.27-.55-.27s-.41-.14-.55-.14v.14c-.14 0-.41.14-.55 0-.27 0-.41 0-.68 0v.14h.14c-.14.14-.14.27-.14.41s0 .27-.14.41h.14c-.14 0-.14 0-.14 0 0 .14-.14.27-.14.41s0 .27-.14.41v.14.14c0 .14 0 .14.14.14s0 0 0-.14 0 0 0 0l-.14.14s0 .14-.14.14c0 .14-.14.14-.14.27v-.16-.14.14.14c-.14.27-.27.41-.41.68-.27.41-.55.68-.68 1.09h-.14c-.68.96-1.37 1.91-2.05 2.87s-1.5 1.78-2.46 2.6c0-.14.14-.14.27-.27 0 0 .14-.14.14-.27-.27.14-.41.27-.55.55-.14.14-.41.41-.55.55-.14-.55-.14-1.09-.14-1.64s0-1.23.14-1.78c0-.27.14-.55.14-.82s0-.55.14-.82c0-.27.14-.68.14-.96.14-.27.14-.55.27-.96 0-.14.14-.27.14-.41s0-.41.14-.55c0 0 0-.14.14-.14 0 0 .14 0 .14-.14 0-.27.14-.41.14-.68s0-.55.14-.68c0-.14.14-.41.14-.55s.14-.41.14-.55c-.14-.14-.27-.27-.55-.27-.27 0-.41-.14-.68-.14s-.41 0-.68 0l-.55.14v.14s.14 0 0 .14c0 0-.14 0-.14.14l-.14.14c-.14.55-.27 1.23-.55 1.78-.27.55-.41 1.23-.41 1.78.14-.27.27-.55.27-.82s.14-.55.27-.82c0 .14 0 .41-.14.55s-.14.41 0 .55c0-.14 0-.41.14-.68 0-.27.14-.41.27-.68 0 .27-.14.55-.27.82-.14.27-.14.55-.14.82-.27.68-.41 1.5-.55 2.19-.14.82-.14 1.64-.27 2.32 0-.27 0-.41 0-.68s0-.41 0-.68c-.14 0-.14 0-.14 0v.14.14s0 0 0-.14 0-.14.14 0c0 .14-.14.41 0 .68v.68c0-.14 0-.41 0-.55s0-.27 0-.41c0 .27-.14.41-.14.68v.82c0 .55.14 1.09.41 1.64.27.41.68.82 1.23 1.09l.14.14.14.14c.14.14.27.14.55.14.14 0 .41.14.55.14.41 0 .82 0 1.23-.14s.68-.27.96-.55c0-.14.14-.27.27-.41.14 0 .27-.14.27-.27h.14s.14 0 0-.14c0-.14 0-.14.14 0 0 0 0 0 0-.14s0-.14.14 0v-.14l.82-.96.82-.96v-.14s0 0 0-.14h.14c.14-.27.27-.68.41-.82l.14-.14v-.14-.14c0-.14 0-.14.14-.27-.14.55-.14 1.23-.27 1.78-.14.82-.14 1.5-.27 2.32.14.14.14.14 0 .14v-.14c0-.14 0-.41 0-.55s0-.41 0-.55c0 .14-.14.27-.14.27v.41.41.27c0-.27 0-.41 0-.68 0-.14 0-.41-.14-.55v.82.68c.27.14.41.41.68.68s.41.41.82.55h.27.27s0-.14.14-.14c0 0 0-.14.14-.14.27-.96.55-1.91.96-2.73s.68-1.78.96-2.73h.14v-.14c.27 0 .27-.27.27-.68.41-.68.82-1.37 1.09-2.05.41-.68.82-1.37 1.37-1.78v.14s0 .14.14 0c0 0-.14-.14 0-.14v-.14c.14.27.14.55.14.96v.68s0 0-.14 0c0 0 0 .14.14.14 0 .14 0 .27-.14.41s-.14.27 0 .41c0 0 .14-.14 0-.14 0-.14 0-.14.14-.14v.55.41l.14.14s0 .14-.14.14c0 0 0-.14 0-.27 0-.14 0-.14 0-.27 0-.14 0-.27 0-.14v.41.41c.14.14.14.27.14.41v.55c0-.14 0-.27 0-.27 0-.14 0-.14 0-.27 0 .27.14.55.14.68 0 .27 0 .41-.14.68v-.14.55c0-.14 0-.14 0-.27 0-.14 0-.14 0-.14 0 .27.14.55.14.82v.96c0-.14 0-.41 0-.55s0-.41-.14-.55v.68.55c0 .14.14.14.14.27v.27c.14.14.14.27.27.41 0 .14.14.27.14.55.14.14.41.41.68.41.27.14.41.27.68.41.14 0 .14.14.27.14l.27.14h.41.27c.14-.14.27-.27.41-.27-.14 0-.14-.14 0-.14s.14-.14.14-.14c-.57-.54-.71-.67-.57-.81zm-19-1.78c0-.13.14-.13 0 0 .14.14 0 0 0 0zm.41 1.1c-.13 0-.13 0 0 0l-.14-.14c.01-.14.01 0 .14.14-.13 0-.13 0 0 0zm-.27-1.1c0-.14 0-.14 0-.27.14 0 .14.14 0 .27v.14zm.14.41v.28-.41zm0 .41c0-.13 0 0 0 0zm.13.55c-.13 0-.13 0 0 0 0-.14 0-.14-.14-.14h.14zm.82-8.2c0 .14 0 .14 0 0l-.14.27h-.14c.15 0 .15-.13.28-.27-.13.14-.13.14 0 0v-.14zm0-.28c0-.14 0-.14 0-.14.14.01.14.01 0 .14.14 0 .14 0 0 0zm.14.14v.14-.14c.14 0 .14 0 0 0zm.14-.68v.14-.14c-.14 0 0-.14 0-.14.13 0 .13 0 0 .14zm.41-.96c0-.14 0-.14 0 0 0-.14 0 0 0 0zm4.37 7.11c0 .14 0 .14 0 0 0 0 .14 0 0 0zm1.78-2.46c0 .14 0 .14 0 0zm.13 6.15c0 .14 0 .14 0 0 .14-.14.14 0 0 0zm1.92-10.12c-.14.14-.14 0 0 0zm-.28 1.24c0 .13 0 .13 0 0zm0-.28c.14 0 .14 0 0 0zm-.95 4.79c0 .13 0 .13 0 0zm0 .54s0 .14 0 0c-.14.14 0 0 0 0zm-.28 1.37c0 .14 0 .14 0 0 0 0 .14 0 0 0zm.28.14c-.14 0-.14-.14 0-.14h.14c-.14 0-.14 0-.14.14zm0-.28c.13 0 .13 0 0 0zm.13-.41c-.13 0-.13 0 0 0 0-.13 0-.13 0 0zm0-.27c0-.14-.13-.14 0 0 0-.14 0-.14 0 0zm0-.41c0-.14 0-.14 0 0zm6.43-4.37c0-.14 0-.14 0-.14v.14c0-.14 0-.14 0 0 0 0 0 .14.14.14-.14-.01-.14-.14-.14-.14zm0 2.46c0-.14 0-.14 0-.14.13 0 .13 0 0 .14.13 0 .13 0 0 0zm.13 3.41c0-.13 0-.13 0 0zm0 .14s.14 0 0 0c0 .14 0 .14 0 0zm0 .27c.14-.13.14-.13 0 0 .14 0 .14 0 0 0zm.14.28c0-.14 0-.14 0 0zm-7.38-.55c0-.14 0-.14 0-.14v.14c-.14.14-.14.27 0 .27h.14c-.14-.13-.14-.27-.14-.27zm0 .41c-.14 0-.14 0 0 0zm0-1.09c0-.14 0 0 0 0 .14.13.14 0 0 0zm-37.86 4.1c.14 0 .14 0 0 0s-.13 0 0 0zm3.69-6.56c.27-.41.41-.82.55-1.37-.14.27-.14.41-.27.68-.14.28-.28.41-.28.69zm-4.51 4.92s.14 0 0 0zm.28-.14s.13 0 0 0c0-.14 0-.14 0 0zm3.96-4.24.14-.27c-.14.14-.14.14-.14.27zm0-.13.14-.14c-.14-.14-.14 0-.14.14zm.14-.28c.14 0 .14 0 .14-.14-.14.01-.14.01-.14.14zm34.16 3.28c0 .14 0 .14 0 0zm29.53.14c-.14 0-.14.14 0 0zm-3.42-9.16c.14 0 .14-.14 0 0 0-.14 0-.14 0 0zm-67.38 7.79c0-.14 0-.27 0-.41v.41c-.14.27-.14.41 0 .55 0-.27 0-.41 0-.55zm0-.68c.13 0 0 .14 0 0v.14s0 0 0-.14c.13 0 .13 0 0 0zm41.55.82c-.14 0 0 .14 0 0zm-4.51 1.78c0-.14-.14 0 0 0zm4.78-2.6c-.14 0-.14 0 0 0-.14-.14-.14-.14 0 0-.14.27-.14.41-.14.68s-.14.55-.14.82c.14-.14.14-.41.14-.68s0-.55.14-.82zm-.27 1.78c0-.14 0-.14-.14-.14 0 0 0 .14.14.14 0 .14 0 .14-.14.27.14 0 .14-.14.14-.27zm0-1.23c-.14.13 0 .13 0 0zm-.28 1.77c.14-.13 0-.13 0 0 0-.13 0-.13 0 0zm.28-2.32v.14c0 .13 0 .13 0-.14zm0 .55c0-.14 0-.14 0 0 0-.14 0-.14 0-.14z" fill="#1e2256"/></svg>